<svg width="72" height="72" viewBox="0 0 72 72" fill="none" xmlns="http://www.w3.org/2000/svg">
<path d="M21 17.9998C19.3441 18.0007 18.0009 16.6591 18 15.0032C18 15.002 18 15.0009 18 14.9998V8.99976C18 7.34292 19.3432 5.99976 21 5.99976C22.6568 5.99976 24 7.34292 24 8.99976V14.9998C24.0009 16.6557 22.6593 17.9988 21.0034 17.9998C21.0023 17.9998 21.0011 17.9998 21 17.9998ZM51 17.9998C49.3441 18.0007 48.0009 16.6591 48 15.0032C48 15.002 48 15.0009 48 14.9998V8.99976C48 7.34292 49.3432 5.99976 51 5.99976C52.6568 5.99976 54 7.34292 54 8.99976V14.9998C54.0009 16.6557 52.6593 17.9988 51.0034 17.9998C51.0023 17.9998 51.0011 17.9998 51 17.9998Z" fill="#FFEFCC"/>
<path d="M57 12.0002H54V14.9988C54 16.6556 52.6568 17.9988 51 17.9988C49.3432 17.9988 48 16.6556 48 14.9988V12.0002H24V14.9988C24 16.6556 22.6568 17.9988 21 17.9988C19.3432 17.9988 18 16.6556 18 14.9988V12.0002H15C10.0294 12.0002 6 16.0297 6 21.0002V27.0002H66V21.0002C66 16.0297 61.9706 12.0002 57 12.0002Z" fill="#FFB100"/>
<path d="M21 42C22.6569 42 24 40.6569 24 39C24 37.3431 22.6569 36 21 36C19.3431 36 18 37.3431 18 39C18 40.6569 19.3431 42 21 42Z" fill="#FFB100"/>
<path d="M21 54C22.6569 54 24 52.6569 24 51C24 49.3431 22.6569 48 21 48C19.3431 48 18 49.3431 18 51C18 52.6569 19.3431 54 21 54Z" fill="#FFB100"/>
<path d="M36 42C37.6569 42 39 40.6569 39 39C39 37.3431 37.6569 36 36 36C34.3431 36 33 37.3431 33 39C33 40.6569 34.3431 42 36 42Z" fill="#FFB100"/>
<path d="M36 54C37.6569 54 39 52.6569 39 51C39 49.3431 37.6569 48 36 48C34.3431 48 33 49.3431 33 51C33 52.6569 34.3431 54 36 54Z" fill="#FFB100"/>
<path d="M51 42C52.6569 42 54 40.6569 54 39C54 37.3431 52.6569 36 51 36C49.3431 36 48 37.3431 48 39C48 40.6569 49.3431 42 51 42Z" fill="#FFB100"/>
<path d="M51 54C52.6569 54 54 52.6569 54 51C54 49.3431 52.6569 48 51 48C49.3431 48 48 49.3431 48 51C48 52.6569 49.3431 54 51 54Z" fill="#FFB100"/>
<path d="M6 27.0002V57.0002C6 61.9708 10.0294 66.0002 15 66.0002H57C61.9706 66.0002 66 61.9708 66 57.0002V27.0002H6ZM21 54.0002C19.3432 54.0002 18 52.6571 18 51.0002C18 49.3434 19.3432 48.0002 21 48.0002C22.6568 48.0002 24 49.3434 24 51.0002C24 52.6571 22.6568 54.0002 21 54.0002ZM21 42.0002C19.3432 42.0002 18 40.6571 18 39.0002C18 37.3434 19.3432 36.0002 21 36.0002C22.6568 36.0002 24 37.3434 24 39.0002C24 40.6571 22.6568 42.0002 21 42.0002ZM36 54.0002C34.3431 54.0002 33 52.6571 33 51.0002C33 49.3434 34.3431 48.0002 36 48.0002C37.6569 48.0002 39 49.3434 39 51.0002C39 52.6571 37.6569 54.0002 36 54.0002ZM36 42.0002C34.3431 42.0002 33 40.6571 33 39.0002C33 37.3434 34.3431 36.0002 36 36.0002C37.6569 36.0002 39 37.3434 39 39.0002C39 40.6571 37.6569 42.0002 36 42.0002ZM51 54.0002C49.3432 54.0002 48 52.6571 48 51.0002C48 49.3434 49.3432 48.0002 51 48.0002C52.6568 48.0002 54 49.3434 54 51.0002C54 52.6571 52.6568 54.0002 51 54.0002ZM51 42.0002C49.3432 42.0002 48 40.6571 48 39.0002C48 37.3434 49.3432 36.0002 51 36.0002C52.6568 36.0002 54 37.3434 54 39.0002C54 40.6571 52.6568 42.0002 51 42.0002Z" fill="#FFB100" fill-opacity="0.2"/>
</svg>
