<svg width="72" height="73" viewBox="0 0 72 73" fill="none" xmlns="http://www.w3.org/2000/svg">
<path d="M42.03 42.7346L41.625 42.6549V40.0957C41.625 39.794 41.5065 39.5047 41.2955 39.2913C41.0845 39.078 40.7984 38.9582 40.5 38.9582H31.5C31.2016 38.9582 30.9155 39.078 30.7045 39.2913C30.4935 39.5047 30.375 39.794 30.375 40.0957V42.6549L29.97 42.7346C29.7489 42.7796 29.5463 42.8907 29.3885 43.0535C29.2307 43.2164 29.1249 43.4234 29.0849 43.6478C29.0448 43.8722 29.0724 44.1036 29.1641 44.3119C29.2557 44.5202 29.4071 44.6959 29.5987 44.8161C31.5265 46.006 33.7414 46.6356 36 46.6356C38.2586 46.6356 40.4735 46.006 42.4012 44.8161C42.5929 44.6959 42.7443 44.5202 42.8359 44.3119C42.9276 44.1036 42.9552 43.8722 42.9152 43.6478C42.8751 43.4234 42.7693 43.2164 42.6115 43.0535C42.4537 42.8907 42.2511 42.7796 42.03 42.7346ZM23.625 18.1995C22.1332 18.1995 20.7024 18.7987 19.6475 19.8652C18.5926 20.9318 18 22.3784 18 23.8868C18 25.3952 18.5926 26.8418 19.6475 27.9083C20.7024 28.9749 22.1332 29.5741 23.625 29.5741C23.9234 29.5741 24.2095 29.4543 24.4205 29.241C24.6315 29.0276 24.75 28.7383 24.75 28.4366V19.3369C24.75 19.0353 24.6315 18.7459 24.4205 18.5326C24.2095 18.3193 23.9234 18.1995 23.625 18.1995ZM48.375 18.1995C48.0766 18.1995 47.7905 18.3193 47.5795 18.5326C47.3685 18.7459 47.25 19.0353 47.25 19.3369V28.4366C47.25 28.7383 47.3685 29.0276 47.5795 29.241C47.7905 29.4543 48.0766 29.5741 48.375 29.5741C49.8668 29.5741 51.2976 28.9749 52.3525 27.9083C53.4074 26.8418 54 25.3952 54 23.8868C54 22.3784 53.4074 20.9318 52.3525 19.8652C51.2976 18.7987 49.8668 18.1995 48.375 18.1995Z" fill="#FCC37A"/>
<path d="M48.375 12.8761L23.625 12.387C23.325 12.3968 23.038 12.5136 22.815 12.7168C22.7087 12.8222 22.6242 12.9478 22.5662 13.0864C22.5083 13.2251 22.4782 13.3739 22.4775 13.5244V28.4366C22.4775 32.0567 23.8999 35.5285 26.4316 38.0883C28.9633 40.6481 32.3971 42.0862 35.9775 42.0862C39.558 42.0862 42.9917 40.6481 45.5235 38.0883C48.0552 35.5285 49.4775 32.0567 49.4775 28.4366V14.0135C49.4776 13.7158 49.3622 13.4298 49.156 13.2172C48.9499 13.0045 48.6695 12.882 48.375 12.8761Z" fill="#FFD9AA"/>
<path d="M64.402 53.4456C64.0547 51.393 63.0965 49.4963 61.6552 48.0086C60.214 46.5209 58.3583 45.513 56.3358 45.1194L42.4195 42.3553C42.1457 42.299 41.861 42.3476 41.6208 42.4918C40.0392 43.4467 38.2315 43.9508 36.3895 43.9508C34.5475 43.9508 32.7398 43.4467 31.1583 42.4918C30.918 42.3476 30.6333 42.299 30.3595 42.3553L16.4433 45.1194C14.4207 45.513 12.565 46.5209 11.1238 48.0086C9.68258 49.4963 8.72435 51.393 8.37701 53.4456L6.01451 67.6867C5.98822 67.8506 5.99774 68.0183 6.04238 68.178C6.08702 68.3378 6.1657 68.4857 6.27291 68.6115C6.38012 68.7372 6.51326 68.8377 6.66296 68.9059C6.81267 68.9741 6.97533 69.0083 7.13951 69.0061H65.6395C65.8037 69.0083 65.9664 68.9741 66.1161 68.9059C66.2658 68.8377 66.3989 68.7372 66.5061 68.6115C66.6133 68.4857 66.692 68.3378 66.7366 68.178C66.7813 68.0183 66.7908 67.8506 66.7645 67.6867L64.402 53.4456ZM42.0145 3.0332H30.7645C28.6759 3.0332 26.6729 3.87208 25.196 5.36529C23.7192 6.8585 22.8895 8.88373 22.8895 10.9955V14.7718C22.8895 15.0735 23.008 15.3628 23.219 15.5761C23.43 15.7895 23.7161 15.9093 24.0145 15.9093H48.7645C49.0629 15.9093 49.349 15.7895 49.56 15.5761C49.771 15.3628 49.8895 15.0735 49.8895 14.7718V10.9955C49.8895 8.88373 49.0598 6.8585 47.583 5.36529C46.1061 3.87208 44.1031 3.0332 42.0145 3.0332Z" fill="#E76D4F"/>
<path d="M49.1629 14.4117C44.8445 13.36 40.4374 12.724 36.0004 12.5121C31.5635 12.724 27.1563 13.36 22.8379 14.4117C22.105 14.7179 21.5021 15.2753 21.1351 15.9862C20.7681 16.697 20.6604 17.5158 20.8309 18.2989C21.0013 19.082 21.4391 19.7794 22.0674 20.2687C22.6957 20.758 23.4743 21.008 24.2667 20.9748C28.1202 20.0676 32.0479 19.5193 36.0004 19.3369C39.953 19.5193 43.8806 20.0676 47.7342 20.9748C48.5266 21.008 49.3052 20.758 49.9335 20.2687C50.5618 19.7794 50.9995 19.082 51.17 18.2989C51.3405 17.5158 51.2328 16.697 50.8658 15.9862C50.4987 15.2753 49.8959 14.7179 49.1629 14.4117Z" fill="#313137"/>
<path d="M52.875 50.0485H19.125C18.5037 50.0485 18 50.5577 18 51.1859V68.2479C18 68.8761 18.5037 69.3854 19.125 69.3854H52.875C53.4963 69.3854 54 68.8761 54 68.2479V51.1859C54 50.5577 53.4963 50.0485 52.875 50.0485Z" fill="#FFB100"/>
<path d="M37.125 60.2856H34.875V69.3854H37.125V60.2856Z" fill="#FFF7E6"/>
<path d="M25.189 63.7889L18.5402 60.9111C17.8813 60.623 17.1636 60.4985 16.4473 60.5479C15.731 60.5974 15.0368 60.8194 14.4227 61.1955C10.6765 63.4704 12.3752 69.3852 17.0665 69.3852H24.7502C25.0486 69.3852 25.3348 69.2654 25.5457 69.0521C25.7567 68.8388 25.8752 68.5495 25.8752 68.2478V64.8354C25.8751 64.6121 25.8099 64.3938 25.6879 64.2078C25.5658 64.0217 25.3923 63.876 25.189 63.7889ZM57.5777 61.1955C56.9636 60.8194 56.2694 60.5974 55.5531 60.5479C54.8368 60.4985 54.1192 60.623 53.4602 60.9111L46.8115 63.7889C46.6082 63.876 46.4347 64.0217 46.3126 64.2078C46.1906 64.3938 46.1254 64.6121 46.1252 64.8354V68.2478C46.1252 68.5495 46.2438 68.8388 46.4547 69.0521C46.6657 69.2654 46.9519 69.3852 47.2502 69.3852H54.934C59.6252 69.3852 61.324 63.4704 57.5777 61.1955Z" fill="#FFD9AA"/>
<path d="M40.5 50.0485H31.5C31.2016 50.0485 30.9155 50.1683 30.7045 50.3816C30.4935 50.5949 30.375 50.8843 30.375 51.1859V60.2856C30.3756 60.4795 30.4252 60.6701 30.5191 60.8391C30.613 61.0082 30.7481 61.1502 30.9115 61.2516C31.0749 61.353 31.2613 61.4106 31.4529 61.4187C31.6445 61.4268 31.835 61.3852 32.0063 61.298L33.75 60.4221L35.505 61.298C35.6606 61.3761 35.8319 61.4168 36.0056 61.4168C36.1793 61.4168 36.3507 61.3761 36.5063 61.298L38.25 60.4221L39.9937 61.298C40.165 61.3852 40.3555 61.4268 40.5471 61.4187C40.7387 61.4106 40.9251 61.353 41.0885 61.2516C41.2519 61.1502 41.387 61.0082 41.4809 60.8391C41.5748 60.6701 41.6244 60.4795 41.625 60.2856V51.1859C41.625 50.8843 41.5065 50.5949 41.2955 50.3816C41.0845 50.1683 40.7984 50.0485 40.5 50.0485Z" fill="#FFE3A3"/>
</svg>
