<svg width="72" height="72" viewBox="0 0 72 72" fill="none" xmlns="http://www.w3.org/2000/svg">
<path d="M56.25 43.875C64.3272 43.875 70.875 37.3272 70.875 29.25C70.875 21.1728 64.3272 14.625 56.25 14.625C48.1728 14.625 41.625 21.1728 41.625 29.25C41.625 37.3272 48.1728 43.875 56.25 43.875Z" fill="#3B43F2" fill-opacity="0.25"/>
<path d="M57.375 37.125H52.875C52.5766 37.125 52.2905 37.0065 52.0795 36.7955C51.8685 36.5845 51.75 36.2984 51.75 36C51.75 35.7016 51.8685 35.4155 52.0795 35.2045C52.2905 34.9935 52.5766 34.875 52.875 34.875H57.375C57.6734 34.875 57.9595 34.7565 58.1705 34.5455C58.3815 34.3345 58.5 34.0484 58.5 33.75V31.5C58.5 31.2016 58.3815 30.9155 58.1705 30.7045C57.9595 30.4935 57.6734 30.375 57.375 30.375H55.125C54.2299 30.375 53.3715 30.0194 52.7385 29.3865C52.1056 28.7536 51.75 27.8951 51.75 27V24.75C51.75 23.8549 52.1056 22.9964 52.7385 22.3635C53.3715 21.7306 54.2299 21.375 55.125 21.375H59.625C59.9234 21.375 60.2095 21.4935 60.4205 21.7045C60.6315 21.9155 60.75 22.2016 60.75 22.5C60.75 22.7984 60.6315 23.0845 60.4205 23.2955C60.2095 23.5065 59.9234 23.625 59.625 23.625H55.125C54.8266 23.625 54.5405 23.7435 54.3295 23.9545C54.1185 24.1655 54 24.4516 54 24.75V27C54 27.2984 54.1185 27.5845 54.3295 27.7955C54.5405 28.0065 54.8266 28.125 55.125 28.125H57.375C58.2701 28.125 59.1285 28.4806 59.7615 29.1135C60.3944 29.7464 60.75 30.6049 60.75 31.5V33.75C60.75 34.6451 60.3944 35.5035 59.7615 36.1365C59.1285 36.7694 58.2701 37.125 57.375 37.125Z" fill="#707070"/>
<path d="M56.25 22.5C55.9516 22.5 55.6655 22.3815 55.4545 22.1705C55.2435 21.9595 55.125 21.6734 55.125 21.375V19.125C55.125 18.8266 55.2435 18.5405 55.4545 18.3295C55.6655 18.1185 55.9516 18 56.25 18C56.5484 18 56.8345 18.1185 57.0455 18.3295C57.2565 18.5405 57.375 18.8266 57.375 19.125V21.375C57.375 21.6734 57.2565 21.9595 57.0455 22.1705C56.8345 22.3815 56.5484 22.5 56.25 22.5ZM56.25 40.5C55.9516 40.5 55.6655 40.3815 55.4545 40.1705C55.2435 39.9595 55.125 39.6734 55.125 39.375V37.125C55.125 36.8266 55.2435 36.5405 55.4545 36.3295C55.6655 36.1185 55.9516 36 56.25 36C56.5484 36 56.8345 36.1185 57.0455 36.3295C57.2565 36.5405 57.375 36.8266 57.375 37.125V39.375C57.375 39.6734 57.2565 39.9595 57.0455 40.1705C56.8345 40.3815 56.5484 40.5 56.25 40.5Z" fill="#707070"/>
<path d="M19.125 61.875H14.625V37.125H19.125C19.7217 37.125 20.294 37.3621 20.716 37.784C21.1379 38.206 21.375 38.7783 21.375 39.375V59.625C21.375 60.2217 21.1379 60.794 20.716 61.216C20.294 61.6379 19.7217 61.875 19.125 61.875Z" fill="#3B43F2"/>
<path d="M70.875 55.575C70.8768 56.0991 70.7122 56.6103 70.4049 57.0349C70.0976 57.4594 69.6635 57.7755 69.165 57.9375L47.25 65.25C45.0502 65.984 42.6779 66.0233 40.455 65.3625L21.375 59.625V39.375L39.06 44.685C40.45 45.1009 41.669 45.9537 42.5363 47.1168C43.4036 48.28 43.873 49.6916 43.875 51.1425V55.125L44.9775 55.035L68.175 53.1H68.3775C68.704 53.0985 69.0276 53.1614 69.3298 53.2849C69.632 53.4085 69.9069 53.5904 70.1388 53.8202C70.3708 54.0501 70.5551 54.3233 70.6814 54.6244C70.8078 54.9255 70.8735 55.2485 70.875 55.575Z" fill="#FFD9AA"/>
<path d="M43.8751 56.2503L32.1976 51.6603C32.0476 51.6146 31.9088 51.5381 31.7901 51.4355C31.6714 51.333 31.5754 51.2068 31.5084 51.0651C31.4413 50.9233 31.4047 50.769 31.4007 50.6122C31.3968 50.4555 31.4257 50.2996 31.4856 50.1546C31.5455 50.0097 31.635 49.8788 31.7484 49.7705C31.8618 49.6622 31.9967 49.5788 32.1442 49.5257C32.2918 49.4725 32.4488 49.4508 32.6053 49.4619C32.7617 49.4731 32.9141 49.5168 33.0526 49.5903L43.8751 53.9103V56.2503Z" fill="#FCC37A"/>
<path d="M14.625 37.125H1.125V61.875H14.625V37.125Z" fill="#9095F9"/>
</svg>
