<svg width="22" height="22" viewBox="0 0 22 22" fill="none" xmlns="http://www.w3.org/2000/svg">
<path d="M20.8137 4.6379C21.6421 3.8095 21.6421 2.46638 20.8137 1.63797L20.3622 1.18649C19.5338 0.358083 18.1907 0.358084 17.3623 1.18649L11.0002 7.54856L4.63815 1.18649C3.80974 0.358086 2.46662 0.358084 1.63822 1.18649L1.18673 1.63797C0.358328 2.46638 0.358328 3.80949 1.18674 4.6379L7.5488 11L1.18674 17.362C0.35833 18.1904 0.358328 19.5336 1.18674 20.362L1.63822 20.8134C2.46662 21.6419 3.80974 21.6419 4.63814 20.8134L11.0002 14.4514L17.3623 20.8134C18.1907 21.6418 19.5338 21.6419 20.3622 20.8134L20.8137 20.362C21.6421 19.5336 21.6421 18.1904 20.8137 17.362L14.4516 11L20.8137 4.6379Z" fill="white"/>
</svg>
