<svg width="32" height="32" viewBox="0 0 32 32" fill="none" xmlns="http://www.w3.org/2000/svg">
<ellipse cx="15.8215" cy="28.8695" rx="2.43478" ry="2.43478" fill="white"/>
<path d="M20.6309 2.43154C18.8416 1.54917 16.8309 1.2172 14.853 1.4776C12.875 1.738 11.0187 2.57908 9.51878 3.89448C8.54497 4.7485 7.74977 5.77754 7.17042 6.92171C6.64976 7.95001 7.32884 9.10939 8.44216 9.40771L9.11411 9.58776C10.2274 9.88607 11.3453 9.18123 12.0536 8.27196C12.2549 8.01361 12.481 7.77359 12.7295 7.55562C13.5053 6.87524 14.4655 6.4402 15.4886 6.3055C16.5116 6.17081 17.5517 6.34253 18.4772 6.79892C19.4026 7.25532 20.172 7.97591 20.688 8.86956C21.2039 9.76322 21.4433 10.7898 21.3758 11.8195C21.3083 12.8492 20.937 13.8357 20.3088 14.6544C19.6806 15.4731 18.8238 16.0871 17.8466 16.4188C17.0438 16.6956 16.8277 16.6956 16.0003 16.6956L15.3047 16.6956C14.1521 16.6956 13.2177 17.63 13.2177 18.7826V22.2609C13.2177 23.4135 14.1521 24.3478 15.3047 24.3478H16.0003C17.1529 24.3478 18.0873 23.4135 18.0873 22.2609C18.0873 21.7502 18.4573 21.3183 18.9478 21.1763C19.0979 21.1328 19.2523 21.0841 19.4119 21.0299C21.3011 20.3886 22.9576 19.2016 24.1721 17.6188C25.3866 16.0361 26.1044 14.1287 26.2349 12.138C26.3654 10.1472 25.9026 8.16251 24.9051 6.43478C23.9076 4.70705 22.4202 3.31392 20.6309 2.43154Z" fill="white"/>
</svg>
