<svg width="20" height="20" viewBox="0 0 20 20" fill="none" xmlns="http://www.w3.org/2000/svg">
<g clip-path="url(#clip0_5929_31307)">
<path d="M19.4882 19.5788H15.4252C15.1378 19.5788 14.9055 19.3465 14.9055 19.0591V12.5158C14.9055 10.2717 13.748 10.2717 13.3662 10.2717C12.3386 10.2717 11.9016 11.0827 11.7598 11.4332C11.6929 11.5907 11.6614 11.8583 11.6614 12.2324V19.0631C11.6614 19.3505 11.4291 19.5828 11.1418 19.5828H7.07482C6.93703 19.5828 6.80316 19.5276 6.70475 19.4292C6.60633 19.3309 6.55121 19.1969 6.55514 19.0591C6.55514 18.9489 6.61025 7.97647 6.55514 6.85442C6.54727 6.71269 6.59844 6.57489 6.69688 6.47253C6.79531 6.37017 6.92916 6.3111 7.0748 6.3111H11.1418C11.4291 6.3111 11.6614 6.54337 11.6614 6.83077V7.13786C12.3465 6.52763 13.3346 6.02368 14.8071 6.02368C18.063 6.02368 20.0079 8.27564 20.0079 12.0473V19.0591C20.0079 19.3465 19.7756 19.5788 19.4882 19.5788ZM15.9449 18.5394L18.9725 18.5394V12.0472C18.9725 8.87794 17.4567 7.063 14.811 7.063C13.0433 7.063 12.1851 7.94489 11.6457 8.75198C11.5827 8.96458 11.3819 9.12208 11.1457 9.12208H11.1181C10.9291 9.12208 10.7559 9.0197 10.6654 8.85436C10.5945 8.72442 10.5788 8.57481 10.626 8.43702V7.34649H7.60633C7.63389 9.51579 7.60633 16.5355 7.59846 18.5355H10.6221V12.2284C10.6221 11.7048 10.6772 11.3268 10.7953 11.0394C11.252 9.9095 12.2126 9.22841 13.3622 9.22841C15 9.22841 15.9409 10.4253 15.9409 12.5119V18.5394H15.9449L15.9449 18.5394ZM4.8268 19.5787H0.759863C0.472461 19.5787 0.240195 19.3464 0.240195 19.059V6.83073C0.240195 6.54333 0.472461 6.31105 0.759863 6.31105H4.8268C5.1142 6.31105 5.34647 6.54333 5.34647 6.83071V19.0591C5.34647 19.3465 5.1142 19.5787 4.8268 19.5787V19.5787ZM1.27957 18.5394H4.30711V7.35038H1.27959V18.5394L1.27957 18.5394ZM2.79529 5.6811L2.76771 5.68108C1.16535 5.68108 0 4.57085 0 3.04329C0 1.51968 1.18504 0.409424 2.82283 0.409424C4.43307 0.409424 5.5827 1.48815 5.6142 3.03147C5.6142 4.57085 4.42916 5.68108 2.79529 5.68108V5.6811ZM2.82283 1.45274C1.7559 1.45274 1.03937 2.09448 1.03937 3.04726C1.03937 3.98425 1.74805 4.64173 2.76773 4.64173H2.79527C3.85828 4.64173 4.5748 3.99999 4.5748 3.04724C4.55512 2.08267 3.86615 1.45274 2.82283 1.45274Z" fill="currentColor"/>
</g>
<defs>
<clipPath id="clip0_5929_31307">
<rect width="20" height="20" fill="white"/>
</clipPath>
</defs>
</svg>
