<?xml version="1.0" standalone="no"?>
<!DOCTYPE svg PUBLIC "-//W3C//DTD SVG 20010904//EN"
 "http://www.w3.org/TR/2001/REC-SVG-20010904/DTD/svg10.dtd">
<svg version="1.0" xmlns="http://www.w3.org/2000/svg"
 width="700.000000pt" height="700.000000pt" viewBox="0 0 700.000000 700.000000"
 preserveAspectRatio="xMidYMid meet">
<metadata>
Created by potrace 1.11, written by Peter Selinger 2001-2013
</metadata>
<g transform="translate(0.000000,700.000000) scale(0.100000,-0.100000)"
fill="#000000" stroke="none">
<path d="M3370 6974 c-137 -22 -263 -84 -367 -179 -294 -269 -316 -719 -48
-1012 165 -181 391 -262 640 -229 121 16 287 96 380 183 99 91 181 232 210
358 117 502 -309 961 -815 879z"/>
<path d="M1464 5020 c-12 -5 -23 -17 -25 -27 -2 -10 -4 -154 -3 -321 0 -221 4
-306 12 -314 9 -9 75 -12 237 -12 l224 0 42 -96 c23 -52 45 -104 50 -115 4
-11 20 -47 35 -80 14 -33 35 -82 46 -109 10 -27 27 -68 38 -90 10 -23 93 -216
184 -431 92 -214 171 -399 176 -410 13 -28 18 -40 325 -757 l277 -648 -37 -97
c-21 -54 -46 -116 -55 -138 -20 -44 -223 -546 -248 -611 l-16 -41 -309 -1
c-272 0 -311 -2 -325 -16 -15 -14 -17 -54 -17 -323 0 -215 3 -310 11 -321 10
-14 73 -16 554 -16 l543 0 23 29 c12 15 35 58 50 94 47 115 145 344 164 386
30 67 190 445 190 450 0 2 13 32 29 67 16 35 77 176 136 313 59 138 120 278
136 313 16 35 29 65 29 67 0 3 14 34 30 70 17 37 41 92 54 123 21 50 407 940
441 1017 7 17 86 199 175 405 89 206 171 395 182 420 31 69 43 96 93 215 26
61 56 128 65 150 10 22 32 71 49 110 l30 70 225 1 c149 0 230 4 237 11 16 16
15 641 -1 657 -13 13 -91 13 -495 2 -473 -12 -564 -16 -590 -26 -29 -11 -38
-28 -105 -200 -28 -74 -58 -148 -64 -165 -21 -50 -81 -200 -81 -205 -1 -3 -9
-23 -18 -44 -10 -22 -20 -50 -23 -63 -4 -13 -10 -26 -15 -29 -5 -3 -9 -12 -9
-21 0 -8 -7 -29 -15 -46 -8 -18 -53 -131 -100 -252 -47 -121 -89 -229 -94
-240 -5 -11 -17 -40 -26 -65 -9 -25 -23 -58 -30 -75 -8 -16 -32 -79 -55 -140
-24 -60 -78 -200 -122 -310 -43 -110 -102 -258 -130 -330 -28 -71 -54 -133
-58 -138 -3 -4 -32 57 -63 135 -62 157 -209 531 -310 788 -36 91 -129 327
-207 525 -77 198 -145 369 -150 380 -5 11 -37 92 -71 180 -33 88 -69 178 -79
200 -9 22 -20 50 -24 61 -9 28 -37 53 -67 59 -25 5 -159 10 -569 20 -129 4
-287 8 -350 9 -63 2 -125 0 -136 -4z"/>
</g>
</svg>
