<svg width="182" height="202" viewBox="0 0 182 202" fill="none" xmlns="http://www.w3.org/2000/svg">
	<g opacity="0.5">
		<rect width="2.98033" height="2.98522" fill="#404852" />
		<rect x="19.8689" width="2.98033" height="2.98522" fill="#404852" />
		<rect x="39.7378" width="2.98033" height="2.98522" fill="#404852" />
		<rect x="59.6064" width="2.98033" height="2.98522" fill="#404852" />
		<rect x="79.4753" width="2.98033" height="2.98522" fill="#404852" />
		<rect x="99.3442" width="2.98033" height="2.98522" fill="#404852" />
		<rect x="119.213" width="2.98033" height="2.98522" fill="#404852" />
		<rect x="139.082" width="2.98033" height="2.98522" fill="#404852" />
		<rect x="158.951" width="2.98033" height="2.98522" fill="#404852" />
		<rect x="178.82" width="2.98033" height="2.98522" fill="#404852" />
		<rect y="19.9014" width="2.98033" height="2.98522" fill="#404852" />
		<rect x="19.8689" y="19.9016" width="2.98033" height="2.98522" fill="#404852" />
		<rect x="39.7378" y="19.9016" width="2.98033" height="2.98522" fill="#404852" />
		<rect x="59.6064" y="19.9016" width="2.98033" height="2.98522" fill="#404852" />
		<rect x="79.4753" y="19.9016" width="2.98033" height="2.98522" fill="#404852" />
		<rect x="99.3442" y="19.9016" width="2.98033" height="2.98522" fill="#404852" />
		<rect x="119.213" y="19.9016" width="2.98033" height="2.98522" fill="#404852" />
		<rect x="139.082" y="19.9016" width="2.98033" height="2.98522" fill="#404852" />
		<rect x="158.951" y="19.9016" width="2.98033" height="2.98522" fill="#404852" />
		<rect x="178.82" y="19.9016" width="2.98033" height="2.98522" fill="#404852" />
		<rect y="39.803" width="2.98033" height="2.98522" fill="#404852" />
		<rect x="19.8689" y="39.8027" width="2.98033" height="2.98522" fill="#404852" />
		<rect x="39.7378" y="39.8027" width="2.98033" height="2.98522" fill="#404852" />
		<rect x="59.6064" y="39.8027" width="2.98033" height="2.98522" fill="#404852" />
		<rect x="79.4753" y="39.8027" width="2.98033" height="2.98522" fill="#404852" />
		<rect x="99.3442" y="39.8027" width="2.98033" height="2.98522" fill="#404852" />
		<rect x="119.213" y="39.8027" width="2.98033" height="2.98522" fill="#404852" />
		<rect x="139.082" y="39.8027" width="2.98033" height="2.98522" fill="#404852" />
		<rect x="158.951" y="39.8027" width="2.98033" height="2.98522" fill="#404852" />
		<rect x="178.82" y="39.8027" width="2.98033" height="2.98522" fill="#404852" />
		<rect y="59.7043" width="2.98033" height="2.98522" fill="#404852" />
		<rect x="19.8689" y="59.7043" width="2.98033" height="2.98522" fill="#404852" />
		<rect x="39.7378" y="59.7043" width="2.98033" height="2.98522" fill="#404852" />
		<rect x="59.6064" y="59.7043" width="2.98033" height="2.98522" fill="#404852" />
		<rect x="79.4753" y="59.7043" width="2.98033" height="2.98522" fill="#404852" />
		<rect x="99.3442" y="59.7043" width="2.98033" height="2.98522" fill="#404852" />
		<rect x="119.213" y="59.7043" width="2.98033" height="2.98522" fill="#404852" />
		<rect x="139.082" y="59.7043" width="2.98033" height="2.98522" fill="#404852" />
		<rect x="158.951" y="59.7043" width="2.98033" height="2.98522" fill="#404852" />
		<rect x="178.82" y="59.7043" width="2.98033" height="2.98522" fill="#404852" />
		<rect y="79.6057" width="2.98033" height="2.98522" fill="#404852" />
		<rect x="19.8689" y="79.6057" width="2.98033" height="2.98522" fill="#404852" />
		<rect x="39.7378" y="79.6057" width="2.98033" height="2.98522" fill="#404852" />
		<rect x="59.6064" y="79.6057" width="2.98033" height="2.98522" fill="#404852" />
		<rect x="79.4753" y="79.6057" width="2.98033" height="2.98522" fill="#404852" />
		<rect x="99.3442" y="79.6057" width="2.98033" height="2.98522" fill="#404852" />
		<rect x="119.213" y="79.6057" width="2.98033" height="2.98522" fill="#404852" />
		<rect x="139.082" y="79.6057" width="2.98033" height="2.98522" fill="#404852" />
		<rect x="158.951" y="79.6057" width="2.98033" height="2.98522" fill="#404852" />
		<rect x="178.82" y="79.6057" width="2.98033" height="2.98522" fill="#404852" />
		<rect y="99.5073" width="2.98033" height="2.98522" fill="#404852" />
		<rect x="19.8689" y="99.5073" width="2.98033" height="2.98522" fill="#404852" />
		<rect x="39.7378" y="99.5073" width="2.98033" height="2.98522" fill="#404852" />
		<rect x="59.6064" y="99.5073" width="2.98033" height="2.98522" fill="#404852" />
		<rect x="79.4753" y="99.5073" width="2.98033" height="2.98522" fill="#404852" />
		<rect x="99.3442" y="99.5073" width="2.98033" height="2.98522" fill="#404852" />
		<rect x="119.213" y="99.5073" width="2.98033" height="2.98522" fill="#404852" />
		<rect x="139.082" y="99.5073" width="2.98033" height="2.98522" fill="#404852" />
		<rect x="158.951" y="99.5073" width="2.98033" height="2.98522" fill="#404852" />
		<rect x="178.82" y="99.5073" width="2.98033" height="2.98522" fill="#404852" />
		<rect y="119.409" width="2.98033" height="2.98522" fill="#404852" />
		<rect x="19.8689" y="119.409" width="2.98033" height="2.98522" fill="#404852" />
		<rect x="39.7378" y="119.409" width="2.98033" height="2.98522" fill="#404852" />
		<rect x="59.6064" y="119.409" width="2.98033" height="2.98522" fill="#404852" />
		<rect x="79.4753" y="119.409" width="2.98033" height="2.98522" fill="#404852" />
		<rect x="99.3442" y="119.409" width="2.98033" height="2.98522" fill="#404852" />
		<rect x="119.213" y="119.409" width="2.98033" height="2.98522" fill="#404852" />
		<rect x="139.082" y="119.409" width="2.98033" height="2.98522" fill="#404852" />
		<rect x="158.951" y="119.409" width="2.98033" height="2.98522" fill="#404852" />
		<rect x="178.82" y="119.409" width="2.98033" height="2.98522" fill="#404852" />
		<rect y="139.311" width="2.98033" height="2.98522" fill="#404852" />
		<rect x="19.8689" y="139.311" width="2.98033" height="2.98522" fill="#404852" />
		<rect x="39.7378" y="139.311" width="2.98033" height="2.98522" fill="#404852" />
		<rect x="59.6064" y="139.311" width="2.98033" height="2.98522" fill="#404852" />
		<rect x="79.4753" y="139.311" width="2.98033" height="2.98522" fill="#404852" />
		<rect x="99.3442" y="139.311" width="2.98033" height="2.98522" fill="#404852" />
		<rect x="119.213" y="139.311" width="2.98033" height="2.98522" fill="#404852" />
		<rect x="139.082" y="139.311" width="2.98033" height="2.98522" fill="#404852" />
		<rect x="158.951" y="139.311" width="2.98033" height="2.98522" fill="#404852" />
		<rect x="178.82" y="139.311" width="2.98033" height="2.98522" fill="#404852" />
		<rect y="159.212" width="2.98033" height="2.98522" fill="#404852" />
		<rect x="19.8689" y="159.212" width="2.98033" height="2.98522" fill="#404852" />
		<rect x="39.7378" y="159.212" width="2.98033" height="2.98522" fill="#404852" />
		<rect x="59.6064" y="159.212" width="2.98033" height="2.98522" fill="#404852" />
		<rect x="79.4753" y="159.212" width="2.98033" height="2.98522" fill="#404852" />
		<rect x="99.3442" y="159.212" width="2.98033" height="2.98522" fill="#404852" />
		<rect x="119.213" y="159.212" width="2.98033" height="2.98522" fill="#404852" />
		<rect x="139.082" y="159.212" width="2.98033" height="2.98522" fill="#404852" />
		<rect x="158.951" y="159.212" width="2.98033" height="2.98522" fill="#404852" />
		<rect x="178.82" y="159.212" width="2.98033" height="2.98522" fill="#404852" />
		<rect y="179.113" width="2.98033" height="2.98522" fill="#404852" />
		<rect x="19.8689" y="179.113" width="2.98033" height="2.98522" fill="#404852" />
		<rect x="39.7378" y="179.113" width="2.98033" height="2.98522" fill="#404852" />
		<rect x="59.6064" y="179.113" width="2.98033" height="2.98522" fill="#404852" />
		<rect x="79.4753" y="179.113" width="2.98033" height="2.98522" fill="#404852" />
		<rect x="99.3442" y="179.113" width="2.98033" height="2.98522" fill="#404852" />
		<rect x="119.213" y="179.113" width="2.98033" height="2.98522" fill="#404852" />
		<rect x="139.082" y="179.113" width="2.98033" height="2.98522" fill="#404852" />
		<rect x="158.951" y="179.113" width="2.98033" height="2.98522" fill="#404852" />
		<rect x="178.82" y="179.113" width="2.98033" height="2.98522" fill="#404852" />
		<rect y="199.015" width="2.98033" height="2.98522" fill="#404852" />
		<rect x="19.8689" y="199.015" width="2.98033" height="2.98522" fill="#404852" />
		<rect x="39.7378" y="199.015" width="2.98033" height="2.98522" fill="#404852" />
		<rect x="59.6064" y="199.015" width="2.98033" height="2.98522" fill="#404852" />
		<rect x="79.4753" y="199.015" width="2.98033" height="2.98522" fill="#404852" />
		<rect x="99.3442" y="199.015" width="2.98033" height="2.98522" fill="#404852" />
		<rect x="119.213" y="199.015" width="2.98033" height="2.98522" fill="#404852" />
		<rect x="139.082" y="199.015" width="2.98033" height="2.98522" fill="#404852" />
		<rect x="158.951" y="199.015" width="2.98033" height="2.98522" fill="#404852" />
		<rect x="178.82" y="199.015" width="2.98033" height="2.98522" fill="#404852" />
	</g>
</svg>
