<svg width="56" height="56" viewBox="0 0 56 56" fill="none" xmlns="http://www.w3.org/2000/svg">
	<path d="M52.9949 13.7527C52.9949 13.1397 52.6468 13.223 49.2187 10.1959C49.0976 10.09 48.916 10.0219 48.7571 10.0143C37.0652 9.52242 30.996 9.93107 28.022 13.5181C25.0479 9.93107 18.9787 9.51485 7.27927 10.0067C6.78737 10.0294 6.70413 10.37 3.31386 13.17C2.80683 13.6013 3.14737 12.2089 3.049 44.8327C3.049 47.7613 50.3614 46.5354 52.556 45.5213C53.2598 45.0068 52.9268 47.4965 52.9949 13.7527ZM7.60467 42.6003C17.7603 42.184 23.5647 42.4792 26.3722 45.0673L5.76575 44.1592L7.60467 42.6003ZM48.4393 42.6003L50.2782 44.1668L29.6717 45.0749C32.4717 42.4792 38.2836 42.184 48.4393 42.6003ZM51.4814 43.1981L49.4836 41.503V12.4057L51.4814 14.1008V43.1981ZM47.9701 11.4976V41.064C37.6933 40.663 31.9041 41.0262 28.7787 43.8111V15.0316C31.0944 11.5203 36.8836 11.0586 47.9701 11.4976ZM27.2652 15.0316V43.8111C23.5344 40.4813 15.1722 40.7916 8.07386 41.064V11.4976C19.1603 11.0586 24.9495 11.5203 27.2652 15.0316ZM4.56251 14.1008L6.56035 12.4057V41.503L4.56251 43.1981V14.1008Z" fill="#fff" />
	<path d="M14.0068 29.3949C21.9376 29.3949 23.663 30.4165 24.2382 30.4165C25.1084 30.4165 25.2825 29.1679 24.4425 28.9333C20.5074 27.8284 15.2933 27.8208 11.0782 27.9268C10.662 27.9344 10.329 28.2825 10.3366 28.6987C10.3668 29.7127 11.3733 29.3949 14.0068 29.3949Z" fill="#fff" />
	<path d="M14.0068 34.0262C24.3366 34.0262 24.5484 35.9711 24.9722 34.4879C25.0857 34.0868 24.8511 33.6706 24.4501 33.5571C20.5149 32.4522 15.3009 32.4446 11.0857 32.5506C10.6695 32.5581 10.3366 32.9062 10.3441 33.3225C10.3668 34.3441 11.3733 34.0262 14.0068 34.0262Z" fill="#fff" />
	<path d="M14.0068 38.6576C24.3366 38.6576 24.5484 40.6025 24.9722 39.1192C25.0857 38.7181 24.8511 38.3019 24.4501 38.1884C20.5149 37.0835 15.3009 37.076 11.0857 37.1819C10.6695 37.1895 10.3366 37.5376 10.3441 37.9538C10.3668 38.9679 11.3733 38.6576 14.0068 38.6576Z" fill="#fff" />
	<path d="M32.0101 30.3863C35.7711 29.3344 40.8944 29.3419 44.9279 29.4328C45.329 29.4555 45.6922 29.1149 45.6998 28.6911C45.7074 28.2749 45.382 27.9268 44.9582 27.9192C40.7506 27.8209 35.5139 27.8284 31.5939 28.9257C30.6328 29.1982 31.049 30.6587 32.0101 30.3863Z" fill="#fff" />
	<path d="M32.0101 35.0176C35.7712 33.9657 40.8944 33.9733 44.928 34.0641C45.9042 34.1095 45.9874 32.5733 44.9658 32.5506C40.7582 32.4522 35.5215 32.4598 31.6015 33.5571C30.6328 33.8295 31.049 35.29 32.0101 35.0176Z" fill="#fff" />
	<path d="M32.0101 39.649C35.7712 38.5971 40.8944 38.6046 44.928 38.6954C45.9117 38.7333 45.9798 37.2046 44.9658 37.1819C40.7582 37.0836 35.5215 37.0911 31.6015 38.1884C30.6328 38.4609 31.049 39.9214 32.0101 39.649Z" fill="#fff" />
	<path d="M18.8576 18.437C18.6987 18.9441 18.3884 19.6554 17.7452 20.4349C17.2155 19.6478 17.0263 18.596 16.1484 18.9819C15.2101 19.4057 16.0122 20.6241 16.6555 21.517C14.703 23.1516 13.3711 23.0381 13.8782 24.0749C14.0598 24.4457 14.5138 24.6046 14.8922 24.423C16.0425 23.863 16.943 23.2576 17.6771 22.637C18.7895 23.6208 20.1365 24.0295 20.4998 24.0295C21.4003 24.0295 21.5441 22.7278 20.6663 22.5311C19.8944 22.357 19.2738 22.0089 18.7592 21.5776C19.8338 20.3365 20.2576 19.1711 20.4241 18.4446C20.9765 18.3538 22.4749 18.7927 22.4749 17.6878C22.4749 16.4316 20.6209 17.1127 18.4338 16.9311C18.3657 16.5678 18.7365 15.1603 17.6771 15.1603C16.6025 15.1603 16.9884 16.5754 16.9203 16.9311C14.7257 17.1127 12.8792 16.4392 12.8792 17.6878C12.8641 18.0965 14.756 18.2024 18.8576 18.437Z" fill="#fff" />
	<path d="M35.2566 24.0975L36.6187 21.4716H40.1528C41.3485 23.5526 41.5149 24.9451 42.5214 24.4305C42.8922 24.2413 43.0436 23.7872 42.8468 23.4089C38.9722 16.1743 39.2371 15.6294 38.3971 15.6294C38.3214 15.6521 37.9355 15.6218 37.7236 16.038L33.9171 23.4089C33.4479 24.2867 34.795 24.9829 35.2566 24.0975ZM38.3895 18.0283L39.3733 19.9505H37.3982L38.3895 18.0283Z" fill="#fff" />
</svg>
