<svg width="10" height="10" viewBox="0 0 10 10" fill="none" xmlns="http://www.w3.org/2000/svg">
<g clip-path="url(#clip0_885_4320)">
<path d="M8.74996 5.32917C8.68441 6.03842 8.41823 6.71434 7.98256 7.27783C7.54689 7.84132 6.95975 8.26908 6.28984 8.51106C5.61992 8.75304 4.89495 8.79922 4.19975 8.64421C3.50455 8.48919 2.86787 8.13939 2.36422 7.63574C1.86057 7.13209 1.51077 6.49541 1.35575 5.80021C1.20074 5.10501 1.24692 4.38004 1.4889 3.71012C1.73088 3.04021 2.15864 2.45307 2.72213 2.0174C3.28562 1.58172 3.96154 1.31554 4.67079 1.25C4.25555 1.81178 4.05573 2.50394 4.10768 3.20059C4.15963 3.89724 4.4599 4.55211 4.95388 5.04608C5.44785 5.54006 6.10272 5.84033 6.79937 5.89228C7.49602 5.94423 8.18818 5.74441 8.74996 5.32917Z" stroke="#383B7B" stroke-width="0.5" stroke-linecap="round" stroke-linejoin="round"/>
</g>
<defs>
<clipPath id="clip0_885_4320">
<rect width="10" height="10" fill="white"/>
</clipPath>
</defs>
</svg>
