<svg width="56" height="56" viewBox="0 0 56 56" fill="none" xmlns="http://www.w3.org/2000/svg">
	<path d="M9.15587 30.604H9.9984V18.6861L9.04307 18.1699C7.86478 17.5867 7.80436 15.7716 8.94572 15.1142C8.94567 15.1142 27.0566 3.77257 27.0566 3.77257C27.63 3.40898 28.3708 3.40984 28.9391 3.77L47.0526 15.1134C47.5943 15.4513 47.9054 16.0328 47.8857 16.6694C47.8661 17.306 47.5183 17.867 46.9569 18.1703L40.9939 21.3848C41.7269 22.1074 42.1837 23.1094 42.1837 24.2176C42.1947 26.581 40.1275 28.3878 37.7972 28.1999C37.399 30.6012 36.1451 32.7166 34.3471 34.2069V36.3509C34.7627 36.0378 35.3707 36.0818 35.6656 36.5347C35.6656 36.5347 37.39 39.12 37.39 39.12L43.386 40.9092C45.8383 41.6373 47.5508 43.9341 47.5508 46.4946V51.625C47.5508 52.1082 47.1594 52.5 46.6758 52.5C46.6758 52.5 15.0107 52.4995 9.37204 52.5C8.8884 52.5 8.49704 52.1082 8.49704 51.625V46.4946C8.49704 43.9341 10.2094 41.6373 12.6601 40.9097L18.564 39.1473L20.3924 36.5201C20.6929 36.077 21.2916 36.0444 21.7049 36.3534C21.7049 36.3534 21.7049 34.1934 21.7049 34.1934C19.9153 32.7038 18.6672 30.5942 18.2702 28.1999C14.6247 28.601 12.4021 23.9362 15.0413 21.4107C15.0412 21.4108 11.7484 19.6316 11.7484 19.6316V30.6041H12.6533C13.1369 30.6041 13.5283 30.9958 13.5283 31.4791V36.0737C13.5283 36.5569 13.1369 36.9487 12.6533 36.9487H9.15585C8.67221 36.9487 8.28085 36.5569 8.28085 36.0737V31.4791C8.28085 30.9958 8.67221 30.6041 9.15585 30.6041L9.15587 30.604ZM46.1246 16.5976L27.9897 5.2534L9.8745 16.6301L16.8307 20.3882C16.9222 20.3294 17.2259 20.3647 17.2026 20.2468C17.2026 20.2467 17.2026 17.1462 17.2026 17.1462C17.2026 15.9209 17.9836 14.86 19.1022 14.5674C24.5179 13.1463 30.5224 13.157 36.9534 14.6015C38.1129 14.8617 38.9546 15.958 38.9546 17.2086C38.9546 17.2086 38.9434 20.2883 38.9417 20.3104C39.0238 20.326 39.1012 20.3516 39.1814 20.3721L46.1246 16.5976L46.1246 16.5976ZM37.2046 19.3717V17.2086C37.2046 16.7771 36.932 16.39 36.5705 16.3088C30.4156 14.9271 24.6888 14.91 19.5456 16.2601C19.2021 16.3503 18.9526 16.7228 18.9526 17.1462V19.3718H37.2046V19.3717ZM40.4337 24.2176C40.4411 22.8776 39.2578 21.8686 37.942 21.9857C37.942 21.9856 37.942 26.4499 37.942 26.4499C39.2578 26.5668 40.4412 25.5577 40.4337 24.2176ZM34.6667 38.1902L29.603 41.1211L34.1651 44.9283L35.8681 39.9928L34.6667 38.1902ZM28.0247 42.0827L26.5015 43.3561L26.8225 44.9194H29.1006L29.4398 43.2638L28.0247 42.0827H28.0247ZM23.8329 50.75H24.8288L25.2248 45.8382L24.9768 44.6307C24.7251 44.7878 22.6881 46.6786 22.4099 46.6421C22.4099 46.642 23.8329 50.75 23.8329 50.75H23.8329ZM32.1563 50.75L33.5798 46.6249C33.4313 46.6922 31.1295 44.6353 30.9653 44.537C30.9653 44.537 30.6993 45.8363 30.6993 45.8363L31.1271 50.75H32.1563ZM29.0151 46.6694H26.9139L26.5851 50.75H29.3706L29.0151 46.6694ZM45.8008 46.4946C45.8008 44.7028 44.6028 43.0959 42.8869 42.5866L37.3907 40.9462L34.0076 50.75H45.8008V46.4946H45.8008ZM10.247 46.4946V50.75H21.9804L18.5918 40.965L13.1592 42.5866C11.445 43.0959 10.2471 44.7028 10.2471 46.4946H10.247ZM21.3674 38.1821L20.107 39.9936L21.8331 44.9779L26.4465 41.122L21.3674 38.1821ZM23.4549 37.3667L28.0239 40.0122L32.5971 37.3642V35.3628C29.8965 36.8469 26.1527 36.8438 23.4549 35.3556V37.3667ZM28.0333 34.7355C32.5208 34.7355 36.1718 31.0938 36.1903 26.611V21.1217H19.8755V26.5772C19.8755 31.0757 23.5352 34.7355 28.0333 34.7355V34.7355ZM17.8623 26.4499H18.1229V21.9856C15.0116 21.7828 14.7498 26.3274 17.8623 26.4499ZM10.0308 35.1987H11.7783V32.3541C11.2876 32.3569 10.5199 32.3568 10.0308 32.3541V35.1987V35.1987Z" fill="#fff" />
</svg>
