<svg width="56" height="56" viewBox="0 0 56 56" fill="none" xmlns="http://www.w3.org/2000/svg">
	<path d="M41.3108 39.8484L36.9508 37.9635L35.6849 35.6127C35.4623 35.2 34.9521 35.0367 34.5326 35.241L33.5341 35.7256V33.4925C35.8537 32.0525 37.4517 29.7366 37.7335 27.078C39.3602 27.2814 40.9267 26.1038 40.9147 24.4128C40.9148 24.4128 40.9148 17.089 40.9148 17.089C40.9148 12.7417 38.0138 8.90412 33.8501 7.70266C33.4697 5.30651 31.4365 3.5 28.9532 3.5H27.0434C24.5595 3.5 22.526 5.3073 22.1462 7.70416C17.9829 8.90888 15.0852 12.7442 15.0852 17.089V24.4112C15.0813 25.8805 16.2784 27.0782 17.7478 27.078H18.2665C18.5483 29.7366 20.1463 32.0525 22.4659 33.4925V35.7256L21.4674 35.241C21.0487 35.0376 20.5377 35.2 20.3151 35.6127L19.0491 37.9635L14.6896 39.8484C12.3748 40.8481 10.8794 43.1237 10.8794 45.6453V51.625C10.8794 52.1086 11.2712 52.5 11.7544 52.5H44.2456C44.7288 52.5 45.1206 52.1086 45.1206 51.625V45.6453C45.1206 43.1237 43.6252 40.8481 41.3108 39.8484H41.3108ZM34.542 37.1815L35.329 38.6427L33.232 42.4777L29.6235 39.569L34.542 37.1815V37.1815ZM38.673 25.222C38.441 25.369 38.0421 25.3208 37.7809 25.328V23.5028C38.1601 23.4988 38.6161 23.4583 38.8999 23.7814C39.3276 24.1831 39.2054 24.9624 38.673 25.222L38.673 25.222ZM27.0434 5.25H28.9532C30.3431 5.25 31.5137 6.12574 31.9709 7.36342C31.6915 7.33875 31.4123 7.30591 31.1326 7.30591C30.6116 7.32367 24.3481 7.25676 24.0257 7.36327C24.483 6.1257 25.6535 5.25001 27.0434 5.25001V5.25ZM22.7508 9.34729C24.1746 8.82679 29.5757 9.1321 31.1326 9.05584C31.8426 9.05591 32.5557 9.15418 33.2555 9.349C36.735 10.3 39.1648 13.483 39.1648 17.089V21.9243C38.7512 21.7522 38.2299 21.7402 37.7809 21.7528C37.7809 21.7528 37.7809 18.2981 37.7809 18.2981C37.7929 17.7721 37.2753 17.333 36.7585 17.4359C32.4318 18.1742 28.863 17.541 25.8505 15.4996C25.5053 15.2655 25.0452 15.3082 24.7478 15.5987C23.6374 16.6839 21.7216 17.2983 19.053 17.4239C18.5861 17.4462 18.2191 17.8307 18.2191 18.2981V21.7528C17.7752 21.7381 17.2471 21.7524 16.8352 21.9227C16.8352 21.9227 16.8352 17.089 16.8352 17.089C16.8352 13.483 19.2649 10.3 22.7508 9.34727V9.34729ZM16.8348 24.4154C16.8635 23.6515 17.5095 23.4324 18.2191 23.5028C18.2191 23.5028 18.2191 25.328 18.2191 25.328C17.5431 25.3919 16.865 25.2106 16.8348 24.4154L16.8348 24.4154ZM19.969 26.2346C19.9611 26.1535 19.969 19.1167 19.969 19.1167C22.3411 18.9108 24.1424 18.3169 25.4369 17.3146C28.4341 19.1492 31.9896 19.8208 36.0309 19.3124C36.031 19.3336 36.0309 26.1924 36.0309 26.1924C35.6825 35.5795 20.3764 35.6121 19.969 26.2346H19.969ZM24.2159 34.359C26.5169 35.2679 29.4831 35.2679 31.7841 34.3589V36.5751L28 38.412L24.2159 36.5751V34.359L24.2159 34.359ZM21.458 37.1815L26.3764 39.569L22.7679 42.4777L20.671 38.6427L21.458 37.1815V37.1815ZM12.6294 45.6453C12.6294 43.8226 13.7103 42.1777 15.3838 41.4548L19.2906 39.7659L21.7344 44.2353C21.9774 44.7053 22.6461 44.8397 23.0512 44.4968C23.0512 44.4968 27.125 41.2132 27.125 41.2132V50.75H12.6294V45.6453H12.6294ZM43.3706 50.75H28.875V41.2132L32.9488 44.4968C33.3542 44.8397 34.0223 44.7053 34.2655 44.2353C34.2655 44.2354 36.7093 39.7659 36.7093 39.7659L40.6166 41.4548C42.2897 42.1777 43.3706 43.8226 43.3706 45.6453V50.75L43.3706 50.75Z" fill="#fff" />
</svg>
