<svg width="24" height="24" viewBox="0 0 24 24" fill="none" xmlns="http://www.w3.org/2000/svg">
<path d="M18.6131 0H5.38691C2.4118 0 0 2.4118 0 5.38691V18.6131C0 21.5882 2.4118 24 5.38691 24H18.6131C21.5882 24 24 21.5882 24 18.6131V5.38691C24 2.4118 21.5882 0 18.6131 0Z" fill="url(#paint0_linear_1944_10513)"/>
<path d="M8.31309 4.15649H15.7949C15.9612 4.23963 16.2106 4.23963 16.3768 4.32276C17.1064 4.441 17.7886 4.76038 18.3466 5.245C18.9047 5.72962 19.3165 6.36028 19.5358 7.06609C19.6586 7.47282 19.7421 7.89039 19.7852 8.31306V15.6286C19.6664 16.5558 19.324 17.4402 18.7876 18.2057C18.3275 18.7388 17.7506 19.1587 17.1018 19.4326C16.453 19.7066 15.7497 19.8272 15.0467 19.7852H8.81188C7.6992 19.8392 6.6052 19.4844 5.73602 18.7876C5.20747 18.3309 4.79037 17.7594 4.51661 17.1168C4.24284 16.4742 4.11968 15.7775 4.15652 15.0799V9.26076C4.14279 8.84337 4.17064 8.42565 4.23966 8.01379C4.3236 7.16151 4.67403 6.35738 5.24113 5.71565C5.80823 5.07393 6.56317 4.62727 7.39864 4.43914L8.31309 4.15649ZM5.73602 12.054V15.2961C5.70057 15.7089 5.75581 16.1246 5.89785 16.5138C6.03989 16.9031 6.26531 17.2566 6.55832 17.5496C6.85133 17.8427 7.20485 18.0681 7.59412 18.2101C7.9834 18.3522 8.39902 18.4074 8.81188 18.3719C10.9733 18.4551 13.1347 18.4551 15.2961 18.3719C17.2081 18.3719 18.2888 17.2081 18.372 15.2961C18.4551 13.1347 18.4551 10.9733 18.372 8.81185C18.3935 8.40225 18.3287 7.99269 18.1817 7.60975C18.0348 7.22682 17.809 6.87905 17.5189 6.58902C17.2289 6.29899 16.8811 6.07317 16.4982 5.92621C16.1153 5.77926 15.7057 5.71445 15.2961 5.73599C13.1347 5.65286 10.9733 5.65286 8.81188 5.73599C8.39902 5.70054 7.9834 5.75578 7.59412 5.89782C7.20485 6.03986 6.85133 6.26528 6.55832 6.55829C6.26531 6.8513 6.03989 7.20482 5.89785 7.59409C5.75581 7.98337 5.70057 8.39899 5.73602 8.81185V12.054Z" fill="white"/>
<path d="M8.01367 12.0873C8.01587 11.0077 8.44574 9.97286 9.20918 9.20942C9.97262 8.44598 11.0074 8.01611 12.0871 8.01392C13.1608 8.03518 14.1846 8.47117 14.9439 9.23053C15.7033 9.98988 16.1393 11.0137 16.1605 12.0873C16.1583 13.167 15.7285 14.2018 14.965 14.9653C14.2016 15.7287 13.1668 16.1586 12.0871 16.1608C11.0134 16.1395 9.98964 15.7035 9.23029 14.9442C8.47093 14.1848 8.03494 13.161 8.01367 12.0873ZM12.0871 9.51028C11.5822 9.50207 11.0863 9.64482 10.663 9.92023C10.2398 10.1956 9.90838 10.5912 9.71134 11.0561C9.5143 11.5211 9.46059 12.0343 9.5571 12.53C9.6536 13.0257 9.89592 13.4812 10.253 13.8383C10.6101 14.1954 11.0657 14.4377 11.5613 14.5342C12.057 14.6307 12.5702 14.577 13.0352 14.38C13.5001 14.1829 13.8957 13.8516 14.1711 13.4283C14.4465 13.005 14.5893 12.5091 14.581 12.0042C14.581 11.3428 14.3183 10.7084 13.8506 10.2407C13.3829 9.77303 12.7485 9.51028 12.0871 9.51028Z" fill="white"/>
<path d="M15.2462 7.84753C15.2416 7.71528 15.2642 7.58349 15.3127 7.46035C15.3612 7.33722 15.4345 7.22539 15.528 7.13181C15.6216 7.03823 15.7335 6.96492 15.8566 6.91643C15.9797 6.86794 16.1115 6.84531 16.2438 6.84996C16.5026 6.86747 16.7463 6.97819 16.9297 7.16161C17.1131 7.34503 17.2238 7.58873 17.2413 7.84753C17.2413 8.11211 17.1362 8.36585 16.9492 8.55293C16.7621 8.74001 16.5083 8.84511 16.2438 8.84511C15.9792 8.84511 15.7255 8.74001 15.5384 8.55293C15.3513 8.36585 15.2462 8.11211 15.2462 7.84753Z" fill="white"/>
<defs>
<linearGradient id="paint0_linear_1944_10513" x1="-1.52962" y1="25.3301" x2="26.735" y2="-2.51888" gradientUnits="userSpaceOnUse">
<stop stop-color="#FED576"/>
<stop offset="0.26" stop-color="#F47133"/>
<stop offset="0.61" stop-color="#BC3081"/>
<stop offset="1" stop-color="#4C63D2"/>
</linearGradient>
</defs>
</svg>
