<svg width="24" height="24" viewBox="0 0 24 24" fill="none" xmlns="http://www.w3.org/2000/svg">
<path d="M23.993 0H0.00703125C0.003148 0 0 0.003148 0 0.00703125V23.993C0 23.9969 0.003148 24 0.00703125 24H23.993C23.9969 24 24 23.9969 24 23.993V0.00703125C24 0.003148 23.9969 0 23.993 0Z" fill="#37AEE2"/>
<path d="M9.65306 18C9.24898 18 9.28571 17.8479 9.17551 17.4677L8 13.4753L17 8" fill="#C8DAEA"/>
<path d="M10 18C10.2295 18 10.3607 17.8118 10.5246 17.6235L12 15.6L10.1639 14" fill="#A9C9DD"/>
<path d="M10.0694 14.2544L14.9132 17.8415C15.4155 18.1677 15.8461 17.9865 15.9896 17.3343L17.963 7.98584C18.1424 7.18869 17.64 6.82635 17.1019 7.07999L5.58446 11.573C4.83099 11.8629 4.83099 12.3339 5.44095 12.5151L8.41896 13.4572L15.2361 9.07287C15.559 8.8917 15.8461 8.96417 15.6308 9.21781" fill="#F6FBFE"/>
</svg>
