<svg width="24" height="24" viewBox="0 0 24 24" fill="none" xmlns="http://www.w3.org/2000/svg">
<path d="M18.6131 0H5.38691C2.4118 0 0 2.4118 0 5.38691V18.6131C0 21.5882 2.4118 24 5.38691 24H18.6131C21.5882 24 24 21.5882 24 18.6131V5.38691C24 2.4118 21.5882 0 18.6131 0Z" fill="#00C7FF"/>
<path fill-rule="evenodd" clip-rule="evenodd" d="M9.75888 15.055C9.1919 15.041 8.6433 14.851 8.18904 14.5114C7.73477 14.1719 7.39732 13.6995 7.22338 13.1596C7.60942 13.2451 8.00949 13.2451 8.39553 13.1596C8.03042 13.0738 7.68694 12.9137 7.38656 12.6891C7.08618 12.4645 6.83536 12.1804 6.64977 11.8545C6.37829 11.4186 6.23963 10.9131 6.25074 10.3997C6.62338 10.6048 7.0393 10.7188 7.46446 10.7322C6.89389 10.3395 6.49298 9.74559 6.34219 9.06958C6.18974 8.39765 6.29977 7.69286 6.64977 7.09937C7.33455 7.94369 8.18815 8.63567 9.15586 9.13098C10.1236 9.62629 11.1841 9.91401 12.2694 9.97571C12.2694 9.86764 12.2694 9.77619 12.2279 9.67644C12.1531 9.11062 12.2578 8.5356 12.5271 8.03241C12.7965 7.52923 13.2169 7.12325 13.7292 6.87169C14.2416 6.62012 14.8199 6.53566 15.3827 6.6302C15.9456 6.72473 16.4646 6.99351 16.8666 7.39864C16.8841 7.41789 16.9065 7.43196 16.9314 7.43929C16.9564 7.44662 16.9828 7.44694 17.0079 7.4402C17.5655 7.32163 18.1012 7.11689 18.5957 6.83335C18.3971 7.44264 17.995 7.96509 17.4568 8.31308C17.9816 8.25476 18.4945 8.11743 18.9781 7.90574L18.7038 8.31308C18.4155 8.66712 18.083 8.98281 17.7145 9.25247C17.7008 9.26134 17.6897 9.27374 17.6824 9.28836C17.6751 9.30298 17.6718 9.31929 17.673 9.3356C17.6889 9.74085 17.6723 10.1467 17.6231 10.5493C17.5172 11.3907 17.2787 12.21 16.9165 12.9767C16.5495 13.7715 16.0522 14.4992 15.4451 15.1298C14.4329 16.1857 13.1266 16.9127 11.6958 17.2164C11.1956 17.3251 10.6863 17.3863 10.1745 17.3993C8.6381 17.4519 7.12106 17.0437 5.81846 16.2272L5.75195 16.1856C6.67379 16.285 7.60582 16.1507 8.46203 15.7949C8.92633 15.6092 9.36274 15.3602 9.75888 15.055Z" fill="white"/>
</svg>
