<svg width="24" height="24" viewBox="0 0 24 24" fill="none" xmlns="http://www.w3.org/2000/svg">
<g clip-path="url(#clip0_1347_5713)">
<path d="M23.9992 17.9333C23.9992 18.0647 23.9952 18.3497 23.9873 18.5698C23.968 19.1085 23.9253 19.8036 23.8607 20.1203C23.7637 20.5962 23.6171 21.0454 23.4261 21.4193C23.2001 21.8616 22.9118 22.2578 22.5693 22.5997C22.2275 22.9409 21.8316 23.2281 21.39 23.4532C21.0142 23.6447 20.5621 23.7913 20.0835 23.8879C19.77 23.9512 19.0801 23.9931 18.5449 24.0121C18.3245 24.02 18.0395 24.024 17.9085 24.024L6.09069 24.0221C5.95927 24.0221 5.67432 24.0181 5.45417 24.0102C4.9155 23.9908 4.22043 23.9481 3.90372 23.8836C3.4278 23.7865 2.97857 23.64 2.60469 23.449C2.16238 23.223 1.76621 22.9347 1.42428 22.5921C1.08303 22.2503 0.795871 21.8545 0.5708 21.4129C0.379221 21.037 0.232642 20.585 0.136008 20.1064C0.0727269 19.7929 0.0308439 19.103 0.0117891 18.5678C0.00396096 18.3474 0 18.0624 0 17.9315L0.00187501 6.11363C0.00187501 5.98221 0.00588284 5.69724 0.0137813 5.47709C0.0331174 4.93843 0.0757972 4.24336 0.140368 3.92668C0.237423 3.45075 0.383908 3.00153 0.574948 2.62763C0.800957 2.18534 1.08926 1.78915 1.4318 1.44722C1.77362 1.106 2.16943 0.818816 2.61107 0.593723C2.98694 0.402191 3.43898 0.255613 3.9176 0.15898C4.23112 0.0956758 4.92101 0.053793 5.45623 0.0347617C5.67659 0.0269102 5.96166 0.0229492 6.09254 0.0229492L17.9104 0.0248477C18.0419 0.0248477 18.3268 0.0288555 18.547 0.0367539C19.0856 0.0560898 19.7807 0.0987695 20.0974 0.16334C20.5733 0.260395 21.0225 0.406879 21.3964 0.597918C21.8387 0.823926 22.2349 1.11223 22.5768 1.45477C22.9181 1.79658 23.2052 2.19237 23.4303 2.63403C23.6219 3.00989 23.7685 3.46191 23.8651 3.94053C23.9284 4.25407 23.9702 4.94393 23.9893 5.47918C23.9972 5.69953 24.0011 5.98458 24.0011 6.1155L23.9992 17.9333Z" fill="url(#paint0_linear_1347_5713)"/>
<path d="M18.3587 5.70097C16.7338 4.07471 14.5729 3.17865 12.2705 3.17773C7.52673 3.17773 3.66586 7.03714 3.66396 11.781C3.66335 13.2974 4.05965 14.7776 4.81279 16.0823L3.5918 20.5408L8.15424 19.3444C9.41133 20.0298 10.8266 20.391 12.2671 20.3916H12.2706C17.0139 20.3916 20.8752 16.5317 20.8771 11.7878C20.878 9.48891 19.9836 7.32723 18.3587 5.70097ZM12.2706 18.9385H12.2677C10.9841 18.938 9.72514 18.5933 8.62683 17.9417L8.3656 17.7867L5.65818 18.4967L6.38085 15.8579L6.21072 15.5873C5.49466 14.4487 5.11647 13.1327 5.11703 11.7815C5.11858 7.83868 8.32761 4.63086 12.2734 4.63086C14.184 4.63159 15.9801 5.37643 17.3307 6.72809C18.6813 8.07976 19.4246 9.8765 19.4239 11.7873C19.4224 15.7305 16.2134 18.9385 12.2706 18.9385ZM16.1944 13.5827C15.9793 13.4751 14.9221 12.955 14.7249 12.8832C14.5278 12.8115 14.3845 12.7756 14.2411 12.9909C14.0978 13.2061 13.6856 13.6903 13.5602 13.8338C13.4347 13.9772 13.3093 13.9952 13.0942 13.8876C12.8792 13.78 12.1863 13.553 11.3649 12.8206C10.7256 12.2506 10.294 11.5465 10.1686 11.3313C10.0431 11.116 10.1552 10.9997 10.2629 10.8925C10.3596 10.7962 10.4779 10.6414 10.5855 10.5159C10.693 10.3904 10.7288 10.3007 10.8005 10.1572C10.8722 10.0137 10.8363 9.88817 10.7826 9.78057C10.7288 9.67297 10.2987 8.61481 10.1195 8.18438C9.94498 7.76518 9.76765 7.8219 9.63565 7.81531C9.51035 7.80908 9.36685 7.80777 9.2235 7.80777C9.08016 7.80777 8.84717 7.86156 8.65006 8.07678C8.45295 8.29201 7.89742 8.81211 7.89742 9.87024C7.89742 10.9284 8.66797 11.9506 8.7755 12.0941C8.88303 12.2376 10.2919 14.4091 12.4491 15.3402C12.9622 15.5617 13.3627 15.694 13.6751 15.7931C14.1902 15.9567 14.659 15.9336 15.0296 15.8783C15.4427 15.8166 16.3019 15.3582 16.4811 14.8561C16.6603 14.3539 16.6603 13.9235 16.6065 13.8338C16.5528 13.7441 16.4094 13.6903 16.1944 13.5827Z" fill="white"/>
</g>
<defs>
<linearGradient id="paint0_linear_1347_5713" x1="12.0006" y1="0.0229492" x2="12.0006" y2="24.024" gradientUnits="userSpaceOnUse">
<stop stop-color="#61FD7D"/>
<stop offset="1" stop-color="#2BB826"/>
</linearGradient>
<clipPath id="clip0_1347_5713">
<rect width="24" height="24" fill="white"/>
</clipPath>
</defs>
</svg>
